<svg fill="#ffffff" height="42" viewBox="0 0 24 24" width="42" xmlns="http://www.w3.org/2000/svg"><g stroke="#000" stroke-linecap="round" stroke-linejoin="round" stroke-width="1.5"><path d="m14.1073 12.7213c.6328-.6329 1.3612-1.1543 2.1541-1.5479.6797-.3374 1.4797-.1734 2.2386-.1734 1.3807 0 2.5-1.11929 2.5-2.5s-1.1193-2.5-2.5-2.5c-.1939 0-.3826.02207-.5639.06385.0418-.18121.0639-.36995.0639-.56385 0-1.38071-1.1193-2.5-2.5-2.5s-2.5 1.11929-2.5 2.5c0 .75898.1641 1.55919-.1734 2.239"/><path d="m11.9487 15c-.2964.3969-.5558.8192-.7753 1.2615-.3374.6797-.1734 1.4797-.1734 2.2385 0 1.3807-1.11929 2.5-2.5 2.5s-2.5-1.1193-2.5-2.5c0-.1939.02207-.3826.06385-.5638-.18121.0417-.36995.0638-.56385.0638-1.38071 0-2.5-1.1193-2.5-2.5s1.11929-2.5 2.5-2.5c.75893 0 1.55907.1641 2.23885-.1733.79288-.3936 1.52125-.9151 2.1541-1.5479l.69295-.693"/></g></svg>
